<svg width="58" height="58" viewBox="0 0 58 58" fill="none" xmlns="http://www.w3.org/2000/svg">
<mask id="mask0_4041_20" style="mask-type:alpha" maskUnits="userSpaceOnUse" x="3" y="4" width="52" height="51">
<path d="M28.9348 4.00781C43.0718 4.00781 54.5765 15.3127 54.5765 29.2199C54.5765 43.1253 43.0718 54.4426 28.9348 54.4426C14.796 54.4426 3.30371 43.1253 3.30371 29.2199C3.30371 15.3127 14.7978 4.00781 28.9348 4.00781Z" fill="#00DD00"/>
</mask>
<g mask="url(#mask0_4041_20)">
<path d="M25.1967 29.2192C25.1967 27.191 26.8763 25.538 28.938 25.538C30.9997 25.538 32.6793 27.1804 32.6793 29.2174C32.6793 31.2455 30.9997 32.8968 28.938 32.8968C26.8763 32.8968 25.1967 31.2562 25.1967 29.2174V29.2192ZM35.276 23.764L44.2498 18.6626C44.6621 18.4326 45.0155 18.11 45.2822 17.7204C45.5488 17.3307 45.7215 16.8845 45.7866 16.4168C45.8517 15.9492 45.8074 15.4728 45.6574 15.0251C45.5073 14.5774 45.2555 14.1706 44.9217 13.8367C42.0496 10.9481 38.4435 8.89838 34.4922 7.90872C32.498 7.41102 30.5607 8.86679 30.5607 10.8949V21.0978C30.5714 23.4672 33.1805 24.9549 35.276 23.764ZM27.3011 21.0978V10.9056C27.3011 8.8899 25.3638 7.42346 23.3678 7.91938C19.4193 8.91455 15.8151 10.9635 12.9401 13.8473C11.5058 15.28 11.8417 17.6601 13.612 18.675L22.5858 23.7765C24.6919 24.9549 27.3011 23.4672 27.3011 21.0978ZM36.9112 31.8961L45.8956 36.9975C47.6659 38 49.9302 37.097 50.4776 35.1667C51.5836 31.2842 51.5836 27.1701 50.4776 23.2876C49.9284 21.3502 47.6659 20.4579 45.8956 21.4604L36.9112 26.5618C36.4353 26.8256 36.0387 27.212 35.7625 27.6808C35.4864 28.1497 35.3407 28.6839 35.3407 29.2281C35.3407 29.7722 35.4864 30.3064 35.7625 30.7753C36.0387 31.2441 36.4353 31.6305 36.9112 31.8943V31.8961ZM22.6053 34.6725L13.6315 39.774C13.2189 40.0039 12.8652 40.3265 12.5984 40.7163C12.3315 41.1062 12.1587 41.5526 12.0936 42.0205C12.0285 42.4884 12.0728 42.9651 12.2231 43.4129C12.3734 43.8608 12.6255 44.2677 12.9597 44.6017C15.8318 47.4903 19.4379 49.5399 23.3891 50.5296C25.3833 51.0255 27.3206 49.5698 27.3206 47.5434V37.3406C27.2993 34.9694 24.6902 33.4923 22.6053 34.6725ZM20.972 26.5529L11.9875 21.4515C10.2173 20.4472 7.95291 21.3502 7.40549 23.2788C6.29973 27.1612 6.29973 31.2753 7.40549 35.1578C7.95469 37.097 10.2173 37.9894 11.9875 36.9868L20.972 31.8854C21.4455 31.6197 21.8397 31.2326 22.1141 30.764C22.3884 30.2954 22.5331 29.7622 22.5331 29.2192C22.5331 28.6761 22.3884 28.1429 22.1141 27.6743C21.8397 27.2057 21.4455 26.8186 20.972 26.5529ZM30.5732 37.3512V47.5541C30.5732 49.5698 32.5105 51.0362 34.5064 50.5403C38.4556 49.5454 42.0604 47.4965 44.9359 44.6123C46.3702 43.1796 46.0325 40.7996 44.264 39.7864L35.2885 34.685C33.1841 33.4941 30.5732 34.9694 30.5732 37.3512Z" fill="#00DD00"/>
</g>
<path fill-rule="evenodd" clip-rule="evenodd" d="M28.9334 57.6593C12.9693 57.6593 0.0195312 44.9324 0.0195312 29.2193C0.0195312 13.5169 12.9693 0.779297 28.9334 0.779297C44.9081 0.779297 57.8578 13.5169 57.8472 29.2193C57.8472 44.9217 44.9081 57.6593 28.9334 57.6593ZM54.5769 29.2193C54.5769 15.3139 43.0721 4.00724 28.9351 4.00724C14.7964 4.00724 3.30229 15.3121 3.30229 29.2193C3.30229 43.1247 14.7964 54.442 28.9351 54.442C43.0721 54.442 54.5769 43.1247 54.5769 29.2193Z" fill="#00DD00"/>
</svg>
