<svg width="87" height="29" viewBox="0 0 87 29" fill="none" xmlns="http://www.w3.org/2000/svg">
<path d="M23.7676 13.591H18.7822V28.0474H23.7676V13.591ZM5.78444 15.9729C5.78444 15.7294 5.7951 2.47455 5.80576 0.0820312H0.820312V16.0493C0.829678 17.631 1.15242 19.1952 1.76988 20.6514C2.38733 22.1076 3.28727 23.427 4.41766 24.5333C4.66293 24.7875 4.93309 25.031 5.21213 25.2497C7.48713 27.1231 10.2545 28.0705 13.4359 28.0705H16.3028V23.1789H13.0982C9.06719 23.1682 5.78444 19.9385 5.78444 15.9729ZM58.0792 6.60723C56.3765 4.85462 54.2135 4.14895 51.8621 4.14895C49.4413 4.14895 47.2801 4.92039 45.6218 6.60723C44.3883 7.85148 43.6721 9.44946 43.6721 9.44946C43.6721 9.44946 42.9558 7.85148 41.7223 6.60546C40.0534 4.90972 37.9028 4.14895 35.4839 4.14895C33.1306 4.14895 30.9801 4.85462 29.2667 6.60723C27.4289 8.50205 26.51 11.2234 26.51 14.3091C26.51 19.631 26.51 26.3641 26.4994 28.0048H31.4511C31.4617 26.1331 31.5168 17.7362 31.5168 14.3091C31.5168 10.0662 33.87 8.55715 36.1895 8.55715C36.7049 8.55715 37.2203 8.64603 37.7126 8.80956C38.708 9.09751 39.7957 10.0556 40.2773 10.827C40.7377 11.5647 41.0398 12.425 41.0398 14.1652V28.0048H46.283V14.1669C46.283 12.425 46.5851 11.5665 47.0437 10.8288C47.5254 10.0574 48.6131 9.09929 49.6102 8.81133C50.1025 8.6478 50.6179 8.55893 51.1334 8.55893C53.4528 8.55893 55.8042 10.0698 55.8042 14.3109C55.8042 17.7273 55.8611 26.1331 55.8718 28.0066H60.8234C60.8234 26.3659 60.8128 19.6434 60.8128 14.3109C60.8341 11.2252 59.9277 8.50383 58.0792 6.60901V6.60723ZM86.9024 15.884C86.9024 12.6667 85.6814 10.1214 83.5539 7.86215C81.4033 5.56918 78.1668 4.14895 74.8165 4.14895C71.2653 4.14895 68.2065 5.49452 65.7645 8.02746C63.5694 10.2973 62.695 13.008 62.695 16.3462C62.695 19.6967 64.0387 22.8483 66.4594 24.9848C69.001 27.2245 71.635 28.3798 75.4439 28.3798C78.6929 28.3798 82.0876 27.1462 84.359 25.5145L81.1331 22.3434C79.5442 23.4348 77.4718 24.1174 75.5665 24.1174C72.8223 24.1174 69.719 22.3985 68.4536 20.118L86.8491 16.9327C86.8704 16.6252 86.9024 16.1933 86.9024 15.884ZM67.9257 15.5321C67.9826 11.9611 70.0105 8.61226 74.8609 8.61226C79.1407 8.61226 81.1563 11.41 81.6166 13.6372L67.9257 16.0049V15.5321ZM21.2775 10.683C18.2863 10.683 17.5362 8.98731 17.5362 7.4C17.5362 5.81269 18.4214 4.11696 21.2775 4.11696C24.1337 4.11696 25.0189 5.81269 25.0189 7.4C25.0189 8.98731 24.2688 10.683 21.2775 10.683Z" fill="#00DD00"/>
</svg>
