<svg width="61" height="20" viewBox="0 0 61 20" fill="none" xmlns="http://www.w3.org/2000/svg">
<path d="M16.7369 9.55449H13.2471V19.6724H16.7369V9.55449ZM4.14872 11.2215C4.14872 11.0511 4.15618 1.77412 4.16364 0.0996094H0.673828V11.275C0.680384 12.3821 0.906301 13.4768 1.33852 14.496C1.77074 15.5152 2.4007 16.4386 3.19197 17.2129C3.36366 17.3908 3.55277 17.5613 3.7481 17.7143C5.3406 19.0255 7.27773 19.6886 9.50474 19.6886H11.5115V16.265H9.26835C6.44664 16.2575 4.14872 13.997 4.14872 11.2215ZM40.7551 4.66656C39.5632 3.43992 38.0491 2.94602 36.4031 2.94602C34.7085 2.94602 33.1957 3.48595 32.0349 4.66656C31.1715 5.53741 30.6701 6.65582 30.6701 6.65582C30.6701 6.65582 30.1687 5.53741 29.3052 4.66532C28.137 3.47848 26.6316 2.94602 24.9383 2.94602C23.2911 2.94602 21.7857 3.43992 20.5863 4.66656C19.2999 5.99273 18.6566 7.89739 18.6566 10.0571C18.6566 13.7818 18.6566 18.4943 18.6492 19.6426H22.1153C22.1228 18.3326 22.1614 12.4556 22.1614 10.0571C22.1614 7.08751 23.8086 6.0313 25.4322 6.0313C25.793 6.0313 26.1538 6.0935 26.4985 6.20796C27.1952 6.4095 27.9566 7.08004 28.2938 7.61997C28.616 8.13625 28.8275 8.73838 28.8275 9.95632V19.6426H32.4977V9.95756C32.4977 8.73838 32.7092 8.1375 33.0302 7.62121C33.3674 7.08129 34.1288 6.41074 34.8267 6.2092C35.1714 6.09475 35.5322 6.03254 35.893 6.03254C37.5166 6.03254 39.1626 7.09 39.1626 10.0583C39.1626 12.4494 39.2024 18.3326 39.2098 19.6438H42.676C42.676 18.4956 42.6686 13.7905 42.6686 10.0583C42.6835 7.89864 42.049 5.99398 40.7551 4.66781V4.66656ZM60.9313 11.1593C60.9313 8.90757 60.0766 7.12608 58.5873 5.54487C57.0819 3.94003 54.8163 2.94602 52.4711 2.94602C49.9853 2.94602 47.8442 3.88778 46.1347 5.66057C44.5982 7.24924 43.9861 9.14643 43.9861 11.4828C43.9861 13.8278 44.9267 16.0336 46.6212 17.5289C48.4003 19.0964 50.2441 19.9051 52.9103 19.9051C55.1846 19.9051 57.5609 19.0417 59.1509 17.8997L56.8928 15.6802C55.7805 16.4441 54.3299 16.9218 52.9962 16.9218C51.0752 16.9218 48.9029 15.7188 48.0171 14.1227L60.894 11.8933C60.9089 11.6781 60.9313 11.3758 60.9313 11.1593ZM47.6476 10.913C47.6874 8.41368 49.107 6.06987 52.5022 6.06987C55.4981 6.06987 56.909 8.02802 57.2312 9.58683L47.6476 11.2439V10.913ZM14.9939 7.5192C12.9 7.5192 12.375 6.33236 12.375 5.22142C12.375 4.11047 12.9946 2.92363 14.9939 2.92363C16.9932 2.92363 17.6128 4.11047 17.6128 5.22142C17.6128 6.33236 17.0878 7.5192 14.9939 7.5192Z" fill="white"/>
</svg>
