<svg width="41" height="40" viewBox="0 0 41 40" fill="none" xmlns="http://www.w3.org/2000/svg">
<path fill-rule="evenodd" clip-rule="evenodd" d="M20.2534 39.8998C9.07848 39.8998 0.0136719 30.9924 0.0136719 19.9948C0.0136719 9.0048 9.07848 0.0898438 20.2534 0.0898438C31.4357 0.0898438 40.5005 9.0048 40.493 19.9948C40.493 30.9849 31.4357 39.8998 20.2534 39.8998ZM38.2038 19.9948C38.2038 10.2625 30.1505 2.34906 20.2546 2.34906C10.3575 2.34906 2.3116 10.2613 2.3116 19.9948C2.3116 29.7271 10.3575 37.6481 20.2546 37.6481C30.1505 37.6481 38.2038 29.7271 38.2038 19.9948Z" fill="white"/>
<mask id="mask0_2001_3202" style="mask-type:alpha" maskUnits="userSpaceOnUse" x="2" y="2" width="37" height="36">
<path d="M20.2543 2.34961C30.1501 2.34961 38.2035 10.2618 38.2035 19.9954C38.2035 29.7277 30.1501 37.6486 20.2543 37.6486C10.3571 37.6486 2.3125 29.7277 2.3125 19.9954C2.3125 10.2618 10.3584 2.34961 20.2543 2.34961Z" fill="white"/>
</mask>
<g mask="url(#mask0_2001_3202)">
<path d="M17.6379 19.9955C17.6379 18.576 18.8136 17.419 20.2568 17.419C21.7 17.419 22.8757 18.5686 22.8757 19.9942C22.8757 21.4137 21.7 22.5695 20.2568 22.5695C18.8136 22.5695 17.6379 21.4212 17.6379 19.9942V19.9955ZM24.6934 16.1775L30.9751 12.607C31.2637 12.446 31.5111 12.2203 31.6977 11.9475C31.8844 11.6748 32.0052 11.3625 32.0508 11.0352C32.0964 10.7079 32.0654 10.3745 31.9604 10.0611C31.8553 9.74779 31.679 9.46309 31.4454 9.22938C29.4349 7.20764 26.9106 5.77309 24.1447 5.08043C22.7488 4.73209 21.3927 5.75098 21.3927 7.17045V14.3114C21.4002 15.9697 23.2266 17.011 24.6934 16.1775ZM19.111 14.3114V7.17792C19.111 5.76715 17.7548 4.7408 16.3577 5.08789C13.5937 5.7844 11.0708 7.21842 9.05829 9.23684C8.05427 10.2396 8.28942 11.9054 9.52858 12.6157L15.8102 16.1862C17.2846 17.011 19.111 15.9697 19.111 14.3114ZM25.838 21.8691L32.1271 25.4395C33.3663 26.1412 34.9513 25.5092 35.3345 24.1581C36.1087 21.4408 36.1087 18.5614 35.3345 15.8441C34.9501 14.488 33.3663 13.8635 32.1271 14.5652L25.838 18.1356C25.5049 18.3202 25.2273 18.5907 25.034 18.9188C24.8406 19.247 24.7387 19.6209 24.7387 20.0017C24.7387 20.3826 24.8406 20.7565 25.034 21.0846C25.2273 21.4128 25.5049 21.6832 25.838 21.8678V21.8691ZM15.8239 23.8123L9.54226 27.3827C9.25342 27.5437 9.00586 27.7695 8.81906 28.0423C8.63226 28.3151 8.51131 28.6276 8.46573 28.9551C8.42015 29.2826 8.45118 29.6162 8.55637 29.9296C8.66157 30.2431 8.83807 30.5279 9.07198 30.7616C11.0824 32.7833 13.6067 34.2179 16.3726 34.9106C17.7685 35.2577 19.1246 34.2388 19.1246 32.8205V25.6796C19.1097 24.02 17.2833 22.9862 15.8239 23.8123ZM14.6806 18.1294L8.39144 14.5589C7.15227 13.856 5.56724 14.488 5.18404 15.8378C4.41001 18.5552 4.41001 21.4346 5.18404 24.1519C5.56848 25.5092 7.15227 26.1337 8.39144 25.432L14.6806 21.8616C15.012 21.6756 15.288 21.4047 15.48 21.0767C15.6721 20.7488 15.7733 20.3756 15.7733 19.9955C15.7733 19.6154 15.6721 19.2422 15.48 18.9143C15.288 18.5863 15.012 18.3154 14.6806 18.1294ZM21.4014 25.6871V32.828C21.4014 34.2388 22.7575 35.2651 24.1547 34.918C26.9191 34.2217 29.4425 32.7877 31.4553 30.7691C32.4593 29.7664 32.2229 28.1006 30.985 27.3914L24.7021 23.821C23.2291 22.9875 21.4014 24.02 21.4014 25.6871Z" fill="white"/>
</g>
</svg>
