<svg width="23" height="28" viewBox="0 0 23 28" fill="none" xmlns="http://www.w3.org/2000/svg">
<path d="M19.2916 14.7455C19.305 13.7022 19.5821 12.6792 20.0972 11.7718C20.6122 10.8643 21.3484 10.1019 22.2373 9.55545C21.6726 8.749 20.9276 8.08533 20.0616 7.61714C19.1956 7.14895 18.2323 6.88914 17.2483 6.85835C15.1493 6.63803 13.1143 8.11439 12.0447 8.11439C10.9543 8.11439 9.30747 6.88023 7.53406 6.91672C6.38697 6.95378 5.26903 7.28734 4.28919 7.88492C3.30934 8.48249 2.501 9.32369 1.94291 10.3266C-0.474586 14.5121 1.32865 20.6634 3.64441 24.0466C4.80303 25.7033 6.15713 27.5539 7.92895 27.4883C9.66277 27.4164 10.3103 26.3827 12.4032 26.3827C14.4766 26.3827 15.0842 27.4883 16.8919 27.4465C18.7524 27.4163 19.9246 25.7825 21.0426 24.1101C21.875 22.9297 22.5156 21.625 22.9406 20.2445C21.8597 19.7873 20.9373 19.0221 20.2884 18.0442C19.6395 17.0664 19.2928 15.9191 19.2916 14.7455Z" fill="white"/>
<path d="M15.8766 4.6328C16.891 3.41504 17.3907 1.84982 17.2697 0.269531C15.7199 0.432307 14.2883 1.17301 13.2602 2.34404C12.7576 2.91612 12.3726 3.58167 12.1273 4.30263C11.8819 5.02359 11.7811 5.78583 11.8306 6.54578C12.6058 6.55376 13.3726 6.38574 14.0735 6.05438C14.7743 5.72303 15.3908 5.23696 15.8766 4.6328Z" fill="white"/>
</svg>
