<svg width="21" height="22" viewBox="0 0 21 22" fill="none" xmlns="http://www.w3.org/2000/svg">
<g clip-path="url(#clip0_2001_3435)">
<path fill-rule="evenodd" clip-rule="evenodd" d="M0 0.5H39.9004V2.1154H0V0.5ZM0 3.7308H39.9004V5.3462H0V3.7308ZM0 6.9616H39.9004V8.577H0V6.9616ZM0 10.1924H39.9004V11.8078H0V10.1924ZM0 13.4232H39.9004V15.0386H0V13.4232ZM0 16.654H39.9004V18.2694H0V16.654ZM0 19.8848H39.9004V21.5002H0V19.8848Z" fill="#BD3D44"/>
<path fill-rule="evenodd" clip-rule="evenodd" d="M0 2.11523H39.9004V3.73063H0V2.11523ZM0 5.34604H39.9004V6.96144H0V5.34604ZM0 8.57684H39.9004V10.1922H0V8.57684ZM0 11.8076H39.9004V13.423H0V11.8076ZM0 15.0384H39.9004V16.6538H0V15.0384ZM0 18.2692H39.9004V19.8846H0V18.2692Z" fill="white"/>
<path fill-rule="evenodd" clip-rule="evenodd" d="M0 0.5H15.9602V11.8078H0V0.5Z" fill="#192F5D"/>
<path fill-rule="evenodd" clip-rule="evenodd" d="M1.32426 0.984375L1.4858 1.43669H1.93811L1.56657 1.71131L1.71196 2.14746L1.32426 1.87285L0.968873 2.14746L1.11426 1.71131L0.726562 1.43669H1.21118L1.32426 0.984375ZM3.98967 0.984375L4.13506 1.43669H4.60352L4.21583 1.71131L4.37737 2.14746L3.98967 1.87285L3.60198 2.14746L3.76352 1.71131L3.37582 1.43669H3.84429L3.98967 0.984375ZM6.65508 0.984375L6.80047 1.43669H7.26893L6.88124 1.71131L7.04278 2.14746L6.65508 1.87285L6.26739 2.14746L6.42893 1.71131L6.04123 1.43669H6.5097L6.65508 0.984375ZM9.30434 0.984375L9.46588 1.43669H9.91819L9.54665 1.71131L9.69203 2.14746L9.30434 1.87285L8.9328 2.14746L9.07818 1.71131L8.69049 1.43669H9.17511L9.30434 0.984375ZM11.9697 0.984375L12.1151 1.43669H12.5836L12.1959 1.71131L12.3574 2.14746L11.9536 1.87285L11.5821 2.14746L11.7274 1.71131L11.3397 1.43669H11.8082L11.9697 0.984375ZM14.6352 0.984375L14.7805 1.43669H15.249L14.8613 1.71131L15.0229 2.14746L14.6352 1.87285L14.2475 2.14746L14.409 1.71131L14.0213 1.43669H14.4898L14.6352 0.984375ZM2.66504 2.11516L2.81043 2.56747H3.2789L2.8912 2.84209L3.05274 3.27824L2.66504 3.00363L2.27735 3.27824L2.43889 2.84209L2.05119 2.56747H2.51966L2.66504 2.11516ZM5.3143 2.11516L5.47584 2.56747H5.92815L5.55661 2.84209L5.702 3.27824L5.3143 3.00363L4.94276 3.27824L5.08814 2.84209L4.70045 2.56747H5.18507L5.3143 2.11516ZM7.97971 2.11516L8.1251 2.56747H8.59356L8.20587 2.84209L8.36741 3.27824L7.97971 3.00363L7.59201 3.27824L7.75355 2.84209L7.36586 2.56747H7.83432L7.97971 2.11516ZM10.6451 2.11516L10.7905 2.56747H11.259L10.8713 2.84209L11.0328 3.27824L10.6451 3.00363L10.2574 3.27824L10.419 2.84209L10.0313 2.56747H10.4997L10.6451 2.11516ZM13.2944 2.11516L13.4559 2.56747H13.8921L13.5205 2.84209L13.6659 3.27824L13.2782 3.00363L12.9067 3.27824L13.0521 2.84209L12.6644 2.56747H13.149L13.2944 2.11516ZM1.34041 3.24594L1.46965 3.69825H1.95427L1.56657 3.97287L1.71196 4.40902L1.32426 4.13441L0.968873 4.40902L1.11426 3.97287L0.726562 3.69825H1.21118L1.34041 3.24594ZM3.98967 3.24594L4.13506 3.69825H4.60352L4.23198 3.97287L4.37737 4.40902L3.98967 4.13441L3.61813 4.40902L3.76352 3.97287L3.37582 3.69825H3.84429L3.98967 3.24594ZM6.65508 3.24594L6.80047 3.69825H7.26893L6.88124 3.97287L7.04278 4.40902L6.65508 4.13441L6.26739 4.40902L6.42893 3.97287L6.04123 3.69825H6.5097L6.65508 3.24594ZM9.30434 3.24594L9.46588 3.69825H9.91819L9.54665 3.97287L9.69203 4.40902L9.30434 4.13441L8.9328 4.40902L9.07818 3.97287L8.69049 3.69825H9.17511L9.30434 3.24594ZM11.9697 3.24594L12.1151 3.69825H12.5836L12.2121 3.97287L12.3574 4.40902L11.9697 4.13441L11.5982 4.40902L11.7436 3.97287L11.3559 3.69825H11.8244L11.9697 3.24594ZM14.6352 3.24594L14.7805 3.69825H15.249L14.8613 3.97287L15.0229 4.40902L14.6352 4.13441L14.2475 4.40902L14.409 3.97287L14.0213 3.69825H14.4898L14.6352 3.24594ZM2.66504 4.37672L2.81043 4.82903H3.2789L2.8912 5.10365L3.05274 5.5398L2.66504 5.26519L2.27735 5.5398L2.43889 5.10365L2.05119 4.82903H2.51966L2.66504 4.37672ZM5.3143 4.37672L5.47584 4.82903H5.92815L5.55661 5.10365L5.702 5.5398L5.3143 5.26519L4.94276 5.5398L5.08814 5.10365L4.70045 4.82903H5.18507L5.3143 4.37672ZM7.97971 4.37672L8.1251 4.82903H8.59356L8.22202 5.10365L8.36741 5.5398L7.97971 5.26519L7.60817 5.5398L7.75355 5.10365L7.36586 4.82903H7.83432L7.97971 4.37672ZM10.6451 4.37672L10.7905 4.82903H11.259L10.8713 5.10365L11.0328 5.5398L10.6451 5.26519L10.2574 5.5398L10.419 5.10365L10.0313 4.82903H10.4997L10.6451 4.37672ZM13.2944 4.37672L13.4559 4.82903H13.8921L13.5205 5.10365L13.6659 5.5398L13.2782 5.26519L12.9067 5.5398L13.0521 5.10365L12.6644 4.82903H13.149L13.2944 4.37672ZM1.34041 5.5075L1.46965 5.95981H1.95427L1.56657 6.23443L1.71196 6.67058L1.32426 6.39597L0.968873 6.67058L1.11426 6.23443L0.726562 5.95981H1.21118L1.34041 5.5075ZM3.98967 5.5075L4.13506 5.95981H4.60352L4.23198 6.23443L4.37737 6.67058L3.98967 6.39597L3.61813 6.67058L3.76352 6.23443L3.37582 5.95981H3.84429L3.98967 5.5075ZM6.65508 5.5075L6.80047 5.95981H7.26893L6.88124 6.23443L7.04278 6.67058L6.65508 6.39597L6.26739 6.67058L6.42893 6.23443L6.04123 5.95981H6.5097L6.65508 5.5075ZM9.30434 5.5075L9.46588 5.95981H9.91819L9.54665 6.23443L9.69203 6.67058L9.30434 6.39597L8.9328 6.67058L9.07818 6.23443L8.69049 5.95981H9.17511L9.30434 5.5075ZM11.9697 5.5075L12.1151 5.95981H12.5836L12.2121 6.23443L12.3574 6.67058L11.9697 6.39597L11.5982 6.67058L11.7436 6.23443L11.3559 5.95981H11.8244L11.9697 5.5075ZM14.6352 5.5075L14.7805 5.95981H15.249L14.8613 6.23443L15.0229 6.67058L14.6352 6.39597L14.2475 6.67058L14.409 6.23443L14.0213 5.95981H14.4898L14.6352 5.5075ZM2.66504 6.63828L2.81043 7.09059H3.2789L2.8912 7.36521L3.05274 7.80136L2.66504 7.52675L2.27735 7.80136L2.43889 7.36521L2.05119 7.09059H2.51966L2.66504 6.63828ZM5.3143 6.63828L5.47584 7.09059H5.92815L5.55661 7.36521L5.702 7.80136L5.3143 7.52675L4.94276 7.80136L5.08814 7.36521L4.70045 7.09059H5.18507L5.3143 6.63828ZM7.97971 6.63828L8.1251 7.09059H8.59356L8.22202 7.36521L8.36741 7.80136L7.97971 7.52675L7.60817 7.80136L7.75355 7.36521L7.36586 7.09059H7.83432L7.97971 6.63828ZM10.6451 6.63828L10.7905 7.09059H11.259L10.8713 7.36521L11.0328 7.80136L10.6451 7.52675L10.2574 7.80136L10.419 7.36521L10.0313 7.09059H10.4997L10.6451 6.63828ZM13.2944 6.63828L13.4559 7.09059H13.8921L13.5205 7.36521L13.6659 7.80136L13.2782 7.52675L12.9067 7.80136L13.0521 7.36521L12.6644 7.09059H13.149L13.2944 6.63828ZM1.34041 7.76906L1.46965 8.22137H1.95427L1.56657 8.49599L1.71196 8.93215L1.32426 8.65753L0.968873 8.93215L1.11426 8.49599L0.726562 8.22137H1.21118L1.34041 7.76906ZM3.98967 7.76906L4.13506 8.22137H4.60352L4.23198 8.49599L4.37737 8.93215L3.98967 8.65753L3.61813 8.93215L3.76352 8.49599L3.37582 8.22137H3.84429L3.98967 7.76906ZM6.65508 7.76906L6.80047 8.22137H7.26893L6.88124 8.49599L7.04278 8.93215L6.65508 8.65753L6.26739 8.93215L6.42893 8.49599L6.04123 8.22137H6.5097L6.65508 7.76906ZM9.30434 7.76906L9.46588 8.22137H9.91819L9.54665 8.49599L9.69203 8.93215L9.30434 8.65753L8.9328 8.93215L9.07818 8.49599L8.69049 8.22137H9.17511L9.30434 7.76906ZM11.9697 7.76906L12.1151 8.22137H12.5836L12.2121 8.49599L12.3574 8.93215L11.9697 8.65753L11.5982 8.93215L11.7436 8.49599L11.3559 8.22137H11.8244L11.9697 7.76906ZM14.6352 7.76906L14.7805 8.22137H15.249L14.8613 8.49599L15.0229 8.93215L14.6352 8.65753L14.2475 8.93215L14.409 8.49599L14.0213 8.22137H14.4898L14.6352 7.76906ZM2.66504 8.89984L2.81043 9.35215H3.2789L2.8912 9.62677L3.05274 10.0629L2.66504 9.78831L2.27735 10.0629L2.43889 9.62677L2.05119 9.35215H2.51966L2.66504 8.89984ZM5.3143 8.89984L5.47584 9.35215H5.92815L5.55661 9.62677L5.702 10.0629L5.3143 9.78831L4.94276 10.0629L5.08814 9.62677L4.70045 9.35215H5.18507L5.3143 8.89984ZM7.97971 8.89984L8.1251 9.35215H8.59356L8.22202 9.62677L8.36741 10.0629L7.97971 9.78831L7.60817 10.0629L7.75355 9.62677L7.36586 9.35215H7.83432L7.97971 8.89984ZM10.6451 8.89984L10.7905 9.35215H11.259L10.8713 9.62677L11.0328 10.0629L10.6451 9.78831L10.2574 10.0629L10.419 9.62677L10.0313 9.35215H10.4997L10.6451 8.89984ZM13.2944 8.89984L13.4559 9.35215H13.8921L13.5205 9.62677L13.6659 10.0629L13.2782 9.78831L12.9067 10.0629L13.0521 9.62677L12.6644 9.35215H13.149L13.2944 8.89984ZM1.34041 10.0306L1.46965 10.4829H1.95427L1.56657 10.7575L1.71196 11.1937L1.32426 10.9191L0.968873 11.1937L1.11426 10.7575L0.726562 10.4829H1.21118L1.34041 10.0306ZM3.98967 10.0306L4.13506 10.4829H4.60352L4.23198 10.7575L4.37737 11.1937L3.98967 10.9191L3.61813 11.1937L3.76352 10.7575L3.37582 10.4829H3.84429L3.98967 10.0306ZM6.65508 10.0306L6.80047 10.4829H7.26893L6.88124 10.7575L7.04278 11.1937L6.65508 10.9191L6.26739 11.1937L6.42893 10.7575L6.04123 10.4829H6.5097L6.65508 10.0306ZM9.30434 10.0306L9.46588 10.4829H9.91819L9.54665 10.7575L9.69203 11.1937L9.30434 10.9191L8.9328 11.1937L9.07818 10.7575L8.69049 10.4829H9.17511L9.30434 10.0306ZM11.9697 10.0306L12.1151 10.4829H12.5836L12.2121 10.7575L12.3574 11.1937L11.9697 10.9191L11.5982 11.1937L11.7436 10.7575L11.3559 10.4829H11.8244L11.9697 10.0306ZM14.6352 10.0306L14.7805 10.4829H15.249L14.8613 10.7575L15.0229 11.1937L14.6352 10.9191L14.2475 11.1937L14.409 10.7575L14.0213 10.4829H14.4898L14.6352 10.0306Z" fill="white"/>
</g>
<defs>
<clipPath id="clip0_2001_3435">
<rect y="0.5" width="21" height="21" rx="10.5" fill="white"/>
</clipPath>
</defs>
</svg>
